<svg width="307" height="116" viewBox="0 0 307 116" fill="none" xmlns="http://www.w3.org/2000/svg">
<path d="M147.484 36.13C140.359 36.13 135.033 30.7685 135.033 23.4671C135.033 16.0599 140.289 10.8043 147.484 10.8043C152.211 10.8043 156.267 13.1676 158.313 17.1887L154.009 19.693C152.846 17.0476 150.518 15.5308 147.484 15.5308C143.11 15.5308 140.006 18.7054 140.006 23.4671C140.006 28.1231 143.216 31.4034 147.484 31.4034C150.376 31.4034 152.704 29.8867 153.904 27.2766L158.489 29.2166C156.549 33.5198 152.316 36.13 147.484 36.13ZM166.115 35.8125H161.177V11.1218H166.115V35.8125Z" fill="#21295C"/>
<path d="M138.313 68.873H135.491V44.1823H143.639C148.895 44.1823 151.999 46.5456 151.999 51.2721C151.999 56.0339 148.895 58.3619 143.639 58.3619H138.313V68.873ZM138.313 46.8278V55.6812H143.639C147.449 55.6812 149.212 54.1644 149.212 51.2721C149.212 48.3798 147.449 46.8278 143.639 46.8278H138.313ZM165.272 69.2258C159.452 69.2258 155.642 65.0636 155.642 58.8204V44.1823H158.464V58.9968C158.464 63.5822 161.251 66.5098 165.272 66.5098C169.434 66.5098 172.114 63.4764 172.114 59.032V44.1823H174.901V58.8204C174.901 65.0989 171.092 69.2258 165.272 69.2258ZM186.485 68.873H178.549V44.1823H186.132C190.894 44.1823 193.998 46.475 193.998 50.7783C193.998 53.071 193.01 55.0463 191.07 55.9633C193.293 56.7393 194.88 58.9615 194.88 61.8538C194.915 66.5098 191.564 68.873 186.485 68.873ZM181.335 54.7288L186.873 54.7641C189.977 54.7641 191.141 53.071 191.141 50.9194C191.141 48.1681 189.518 46.863 186.062 46.863H181.335V54.7288ZM181.335 57.3742V66.1923H186.414C190.189 66.1923 192.058 64.7462 192.058 61.7833C192.058 59.3848 190.577 57.4095 187.12 57.4095L181.335 57.3742ZM211.261 68.873H198.527V44.1823H201.349V66.1571H211.261V68.873ZM217.746 68.873H214.889V44.1823H217.746V68.873ZM233.676 69.2258C226.656 69.2258 221.33 63.9702 221.33 56.5277C221.33 48.9794 226.621 43.8296 233.676 43.8296C237.697 43.8296 241.224 45.6638 243.27 48.8736L240.836 50.355C239.284 48.027 237.026 46.5456 233.676 46.5456C228.279 46.5456 224.187 50.4608 224.187 56.5277C224.187 62.4887 228.385 66.5098 233.676 66.5098C236.78 66.5098 239.249 65.0284 240.836 62.6298L243.411 63.7938C241.4 67.18 237.802 69.2258 233.676 69.2258Z" fill="#21295C"/>
<path d="M138.313 101.929H135.491V77.238H143.639C148.895 77.238 151.999 79.6013 151.999 84.3278C151.999 88.2783 149.847 90.3946 146.144 91.0295L152.175 101.929H149.001L143.146 91.4175H138.313V101.929ZM138.313 79.954V88.6663H143.639C147.449 88.6663 149.212 87.2201 149.212 84.3278C149.212 81.4354 147.449 79.954 143.639 79.954H138.313ZM170.693 101.929H156.09V77.238H170.199V79.954H158.947V87.9961H169.599V90.7473H158.947V99.2127H170.693V101.929ZM187.011 101.929H174.277V77.238H177.099V99.2127H187.011V101.929ZM193.602 101.929H190.639L200.374 77.238H202.914L212.684 101.929H209.686L207.006 95.3328H196.283L193.602 101.929ZM201.644 81.4707L197.306 92.6168H205.983L201.644 81.4707ZM220.455 101.929H217.634V79.954H210.755V77.238H227.263V79.954H220.455V101.929ZM233.729 101.929H230.872V77.238H233.729V101.929ZM249.658 102.281C242.851 102.281 237.313 97.0611 237.313 89.5834C237.313 82.0351 242.745 76.8853 249.658 76.8853C256.501 76.8853 261.898 81.9998 261.898 89.5834C261.898 97.0258 256.395 102.281 249.658 102.281ZM249.658 99.6007C254.773 99.6007 259.111 95.5091 259.111 89.5834C259.111 83.5165 254.914 79.566 249.658 79.566C244.368 79.566 240.135 83.5165 240.135 89.5834C240.135 95.5444 244.438 99.6007 249.658 99.6007ZM268.311 101.929H265.524V77.238H267.817L282.878 96.6026V77.238H285.7V101.929H283.443L268.311 82.5994V101.929ZM296.24 102.281C293.771 102.176 291.514 101.329 289.433 99.6713L290.808 97.3433C292.748 98.7895 294.336 99.5302 296.346 99.5655C299.662 99.636 301.672 98.2604 301.672 95.5091C301.672 93.5691 300.156 92.3699 296.523 90.571C292.219 88.4194 289.786 86.8674 289.786 83.199C289.786 79.2133 292.995 76.7089 297.616 76.8853C299.521 76.9558 301.143 77.3438 302.907 78.1551L301.813 80.73C300.12 79.9893 299.027 79.6365 297.44 79.6013C294.583 79.4954 292.643 80.9416 292.643 83.199C292.643 84.9627 293.736 86.0208 296.84 87.6786C300.72 89.6539 304.529 91.2059 304.529 95.5444C304.529 99.9182 301.108 102.458 296.24 102.281Z" fill="#21295C"/>
<path d="M110.999 34.708L113.285 36.2282L58.6672 101.561C57.9129 102.464 56.827 103.053 55.6555 103.184C52.0208 103.584 49.8493 102.287 49.9922 98.3036C50.0322 97.172 50.518 96.0919 51.3124 95.2861L110.999 34.708Z" fill="#FF5500"/>
<path d="M88.0531 50.4518L33.4472 103.332C32.1613 104.578 30.3497 105.241 28.601 104.881C26.4864 104.446 25.9205 102.818 26.7606 100.109C27.0978 99.0114 27.7724 98.0456 28.6696 97.3312L86.7558 49.126L88.0589 50.4518H88.0531Z" fill="#FF5500"/>
<path d="M104.158 29.5581L9.31862 102.269C7.73559 103.48 5.74683 104.121 3.76947 103.846C1.02059 103.463 0.146234 101.766 0.792019 98.9943C1.22635 97.1198 2.40941 95.5025 4.00387 94.4224L102.866 27.5293L104.164 29.5524L104.158 29.5581Z" fill="#FF5500"/>
<path d="M97.7171 24.3917L32.7498 66.5277C31.6697 67.2306 30.4297 67.6192 29.1724 67.8764C25.5149 68.6193 23.8806 65.5619 24.1663 64.0303C24.6464 61.4871 26.4577 59.3897 28.7608 58.2067L96.7343 23.3115L97.7171 24.3859V24.3917Z" fill="#FF5500"/>
<path d="M113.536 16.3111L121.354 23.7862L125.938 17.4712C126.475 16.7283 126.863 15.8653 126.995 14.9567C127.326 12.6936 126.223 11.7106 123.812 11.9163C123.143 11.9734 122.492 12.1678 121.886 12.4478L113.542 16.3168L113.536 16.3111Z" fill="#21295C"/>
<path d="M67.3366 99.6805H116.308L116.428 36.7021L67.3366 99.6805Z" fill="#21295C"/>
<path d="M121.794 36.479C121.794 34.233 120.92 32.1242 119.337 30.5355L106.37 17.5569C104.781 15.9682 102.666 15.0938 100.42 15.0938H40.1683C35.5278 15.0938 31.7614 18.8656 31.7614 23.5061V48.2631V50.5262L37.202 48.2688H37.2422V23.5061C37.2422 21.8945 38.5567 20.5801 40.1683 20.5801H100.42C101.209 20.5801 101.941 20.8829 102.495 21.4373L115.456 34.4102C116.005 34.9645 116.308 35.696 116.308 36.479V99.6744H67.3426V105.161H121.794V36.479Z" fill="#21295C"/>
</svg>
