<svg width="357" height="119" viewBox="0 0 357 119" fill="none" xmlns="http://www.w3.org/2000/svg">
<path d="M97.1668 1.1543H0.20636V14.7555H97.1668V1.1543Z" fill="#EADAA2"/>
<path d="M97.1665 22.5801H0.206116V36.1813H97.1665V22.5801Z" fill="#FFD046"/>
<path d="M97.1663 43.999H0.205872V57.6003H97.1663V43.999Z" fill="#CE6C47"/>
<path d="M97.1663 65.4258H0.205872V79.027H97.1663V65.4258Z" fill="#960200"/>
<path d="M97.1663 86.8516H0.205872V100.453H97.1663V86.8516Z" fill="#241E4E"/>
<path d="M97.1665 92.6348H0.206116V116.587H97.1665V92.6348Z" fill="#241E4E"/>
<path d="M126.065 32.9783C117.04 32.9783 110.294 26.1875 110.294 16.9394C110.294 7.55741 116.951 0.900635 126.065 0.900635C132.051 0.900635 137.189 3.89395 139.78 8.98706L134.33 12.1591C132.856 8.80835 129.907 6.88727 126.065 6.88727C120.525 6.88727 116.593 10.9081 116.593 16.9394C116.593 22.8367 120.659 26.9916 126.065 26.9916C129.728 26.9916 132.677 25.0705 134.196 21.7645L140.004 24.2217C137.547 29.6722 132.185 32.9783 126.065 32.9783ZM149.663 32.5762H143.409V1.30272H149.663V32.5762Z" fill="black"/>
<path d="M119.676 74.8979C116.549 74.7639 113.689 73.6917 111.053 71.5919L112.796 68.6432C115.253 70.475 117.263 71.4132 119.81 71.4579C124.01 71.5472 126.556 69.8048 126.556 66.3201C126.556 63.8629 124.635 62.3439 120.033 60.0654C114.583 57.3401 111.5 55.3744 111.5 50.728C111.5 45.6796 115.566 42.5076 121.418 42.731C123.831 42.8203 125.886 43.3118 128.12 44.3393L126.735 47.6007C124.59 46.6625 123.205 46.2157 121.195 46.171C117.576 46.037 115.119 47.8687 115.119 50.728C115.119 52.9618 116.504 54.3021 120.435 56.4019C125.35 58.9038 130.175 60.8696 130.175 66.3648C130.175 71.9046 125.841 75.1213 119.676 74.8979ZM144.932 74.4512H141.358V46.6178H132.646V43.1777H153.554V46.6178H144.932V74.4512ZM161.699 74.4512H158.125V43.1777H168.445C175.102 43.1777 179.034 46.171 179.034 52.1577C179.034 57.1614 176.309 59.842 171.617 60.6462L179.257 74.4512H175.236L167.82 61.1376H161.699V74.4512ZM161.699 46.6178V57.6529H168.445C173.271 57.6529 175.504 55.8211 175.504 52.1577C175.504 48.4942 173.271 46.6178 168.445 46.6178H161.699ZM187.096 74.4512H183.343L195.674 43.1777H198.89L211.266 74.4512H207.468L204.073 66.0967H190.491L187.096 74.4512ZM197.282 48.5389L191.787 62.6566H202.777L197.282 48.5389ZM221.108 74.4512H217.534V46.6178H208.822V43.1777H229.731V46.6178H221.108V74.4512ZM252.798 74.4512H234.302V43.1777H252.172V46.6178H237.921V56.804H251.413V60.2888H237.921V71.0111H252.798V74.4512ZM270.874 74.8979C262.252 74.8979 255.506 68.3752 255.506 58.8144C255.506 49.0303 262.162 42.731 270.874 42.731C275.967 42.731 280.435 45.0541 283.026 49.1197L280.033 50.8621C277.978 47.9134 274.717 46.171 270.874 46.171C264.084 46.171 259.124 51.1301 259.124 58.8144C259.124 66.3648 264.218 71.4579 270.874 71.4579C276.682 71.4579 281.195 67.1689 281.641 61.495H272.259V58.0103H285.26C285.439 58.5911 285.439 59.1719 285.439 59.976C285.618 68.5986 279.274 74.8979 270.874 74.8979ZM293.679 74.4512H290.06V43.1777H293.679V74.4512ZM316.715 74.4512H298.219V43.1777H316.089V46.6178H301.838V56.804H315.33V60.2888H301.838V71.0111H316.715V74.4512ZM328.704 74.8979C325.576 74.7639 322.717 73.6917 320.081 71.5919L321.824 68.6432C324.281 70.475 326.291 71.4132 328.838 71.4579C333.037 71.5472 335.584 69.8048 335.584 66.3201C335.584 63.8629 333.663 62.3439 329.061 60.0654C323.611 57.3401 320.528 55.3744 320.528 50.728C320.528 45.6796 324.594 42.5076 330.446 42.731C332.859 42.8203 334.914 43.3118 337.148 44.3393L335.763 47.6007C333.618 46.6625 332.233 46.2157 330.223 46.171C326.604 46.037 324.147 47.8687 324.147 50.728C324.147 52.9618 325.532 54.3021 329.463 56.4019C334.378 58.9038 339.203 60.8696 339.203 66.3648C339.203 71.9046 334.869 75.1213 328.704 74.8979Z" fill="black"/>
<path d="M137.189 113.772L135.089 116.676C133.347 115.112 131.649 113.682 129.907 112.119C124.501 117.435 116.415 118.463 112.528 112.968C109.311 108.411 110.919 102.558 116.727 98.6712C115.03 96.5267 113.153 94.4716 113.109 91.7464C113.064 87.2787 116.504 84.5981 120.48 84.5981C124.233 84.5981 127.718 87.3234 127.628 91.523C127.494 94.829 125.439 96.9288 121.731 99.52L129.549 107.07C130.979 105.06 132.141 102.737 133.258 99.9221L136.608 100.816C135.357 104.345 133.883 107.294 132.275 109.438L137.189 113.772ZM119.676 96.7948C123.116 94.7844 124.054 93.2654 124.099 91.6123C124.233 89.4679 122.401 88.0382 120.48 88.0382C118.425 88.0382 116.638 89.3338 116.683 91.791C116.727 93.4887 118.068 94.9184 119.676 96.7948ZM115.7 111.091C117.71 113.727 122.714 114.219 127.182 109.751L118.782 101.441C113.823 104.613 113.868 108.723 115.7 111.091ZM165.451 116.318H161.877V85.0449H172.198C178.854 85.0449 182.786 88.0382 182.786 94.0249C182.786 100.056 178.854 103.005 172.198 103.005H165.451V116.318ZM165.451 88.3956V99.6094H172.198C177.023 99.6094 179.256 97.6883 179.256 94.0249C179.256 90.3614 177.023 88.3956 172.198 88.3956H165.451ZM190.975 116.318H187.4V85.0449H197.721C204.377 85.0449 208.309 88.0382 208.309 94.0249C208.309 99.0286 205.584 101.709 200.893 102.513L208.532 116.318H204.511L197.095 103.005H190.975V116.318ZM190.975 88.485V99.52H197.721C202.546 99.52 204.78 97.6883 204.78 94.0249C204.78 90.3614 202.546 88.485 197.721 88.485H190.975ZM228.255 116.765C219.632 116.765 212.618 110.153 212.618 100.682C212.618 91.1209 219.498 84.5981 228.255 84.5981C236.922 84.5981 243.758 91.0762 243.758 100.682C243.758 110.108 236.788 116.765 228.255 116.765ZM228.255 113.37C234.733 113.37 240.228 108.187 240.228 100.682C240.228 92.9973 234.912 87.9936 228.255 87.9936C221.553 87.9936 216.192 92.9973 216.192 100.682C216.192 108.232 221.643 113.37 228.255 113.37ZM246.082 116.318V112.744C249.522 112.208 251.086 110.376 251.086 107.115L251.041 85.0449H254.615L254.66 107.249C254.66 112.789 252.202 115.559 246.082 116.318ZM277.71 116.318H259.214V85.0449H277.085V88.485H262.833V98.6712H276.325V102.156H262.833V112.878H277.71V116.318ZM296.055 116.765C287.164 116.765 280.418 110.108 280.418 100.682C280.418 91.1209 287.119 84.5981 296.055 84.5981C301.148 84.5981 305.615 86.9213 308.207 90.9869L305.124 92.8633C303.158 89.9146 300.299 88.0382 296.055 88.0382C289.219 88.0382 284.037 92.9973 284.037 100.682C284.037 108.232 289.353 113.325 296.055 113.325C299.986 113.325 303.114 111.449 305.124 108.411L308.385 109.885C305.839 114.174 301.282 116.765 296.055 116.765ZM324.335 116.318H320.761V88.485H312.049V85.0449H332.958V88.485H324.335V116.318ZM343.669 116.765C340.541 116.631 337.682 115.559 335.046 113.459L336.788 110.51C339.246 112.342 341.256 113.28 343.803 113.325C348.002 113.414 350.549 111.672 350.549 108.187C350.549 105.73 348.628 104.211 344.026 101.933C338.575 99.2073 335.493 97.2416 335.493 92.5952C335.493 87.5468 339.558 84.3748 345.411 84.5981C347.823 84.6875 349.879 85.1789 352.112 86.2065L350.727 89.4679C348.583 88.5297 347.198 88.0829 345.188 88.0382C341.569 87.9042 339.112 89.7359 339.112 92.5952C339.112 94.829 340.497 96.1693 344.428 98.2691C349.342 100.771 354.168 102.737 354.168 108.232C354.168 113.772 349.834 116.989 343.669 116.765Z" fill="black"/>
</svg>
