<svg width="274" height="116" viewBox="0 0 274 116" fill="none" xmlns="http://www.w3.org/2000/svg">
<path d="M176.02 63.3265C176.02 71.5268 175.968 79.7271 176.063 87.9274C176.08 89.6588 175.546 90.1239 173.91 90.0033C172.213 89.8655 170.499 89.9344 168.793 89.9861C167.88 90.0119 167.467 89.6588 167.475 88.7543C167.475 88.1514 167.449 87.5484 167.449 86.9368C167.449 72.5174 167.475 58.1065 167.415 43.6871C167.415 41.904 167.088 40.0779 166.64 38.3379C165.951 35.6849 164.073 34.1602 161.368 33.7554C158.25 33.2816 155.175 33.6692 152.298 34.8666C149.283 36.1156 148.551 38.8547 148.542 41.8093C148.516 57.1073 148.534 72.4054 148.534 87.7034C148.534 88.1427 148.499 88.5907 148.534 89.0213C148.62 89.9775 148.172 90.2703 147.276 90.2359C145.459 90.167 143.65 90.1239 141.832 90.1497C140.712 90.167 140.213 89.5812 140.084 88.5907C139.972 87.7723 139.928 86.9454 139.928 86.1271C139.92 72.147 139.963 58.1754 139.877 44.1953C139.868 42.1452 139.489 40.0434 138.938 38.0623C138.3 35.7796 136.569 34.1861 134.235 33.9363C131.651 33.6693 128.972 33.652 126.413 34.0569C123.545 34.5048 121.848 36.6238 121.28 39.4405C120.961 41.0426 120.858 42.7137 120.858 44.3589C120.823 58.9937 120.815 73.6371 120.875 88.2719C120.875 89.8999 120.427 90.4168 118.816 90.2187C117.515 90.055 116.18 90.1497 114.862 90.1928C112.692 90.2703 112.399 90.0205 112.399 87.781C112.399 82.9917 112.399 78.2024 112.399 73.4218C112.399 62.4737 112.373 51.517 112.425 40.5689C112.425 38.8806 112.614 37.1492 112.976 35.504C114.216 29.8792 117.757 26.3562 123.356 25.2794C130.255 23.9615 137.043 24.108 143.331 27.9239C143.839 28.234 144.916 27.9583 145.553 27.6224C151.548 24.4525 157.819 23.4533 164.4 25.2622C168.363 26.3562 172.153 27.8205 174.306 31.7656C175.589 34.1086 176.02 36.6238 176.029 39.2337C176.046 47.2704 176.029 55.2984 176.029 63.3351" fill="#2E318D"/>
<path d="M37.3565 39.3206C37.3565 51.0957 37.3737 62.8707 37.3479 74.6543C37.3392 78.6856 36.8052 82.6824 33.9971 85.7747C32.4983 87.4285 30.5516 88.9876 28.5015 89.7542C22.3427 92.0369 16.046 92.1575 9.77518 89.8145C4.54662 87.8592 1.68685 84.0433 1.05805 78.6339C0.722108 75.7569 0.808246 72.8196 0.791018 69.9081C0.739336 62.707 0.747949 55.4973 0.70488 48.2962C0.679039 44.5233 0.989135 40.8367 2.70328 37.3739C4.13316 34.4797 6.30383 32.4555 9.29281 31.2409C14.1251 29.277 18.9402 27.27 23.7467 25.2285C26.8563 23.9106 28.4068 21.4729 28.4498 18.1221C28.5101 12.7816 28.536 7.44968 28.4929 2.10914C28.4843 0.782622 28.803 0.2055 30.2243 0.308865C31.8695 0.420844 33.5233 0.334706 35.1772 0.334706C37.2876 0.334706 37.3306 0.334706 37.3479 2.5226C37.3737 7.5272 37.3565 12.5404 37.3565 17.545V39.3379M28.3809 33.4288C27.7521 33.6355 27.287 33.7647 26.8477 33.9456C23.4022 35.3927 19.9739 36.8657 16.5198 38.3042C11.541 40.3801 9.59429 43.2743 9.55122 48.7269C9.52538 51.8106 9.44786 54.8857 9.46509 57.9694C9.49093 63.5253 9.46509 69.0812 9.68043 74.6285C9.80964 78.0912 11.4549 80.9768 14.9348 81.8468C17.3122 82.4412 19.9394 82.2775 22.4288 82.0621C24.5736 81.8727 26.529 80.7529 27.2611 78.5736C27.9158 76.6355 28.4498 74.5509 28.4671 72.5181C28.579 60.2521 28.5274 47.9775 28.5187 35.7115C28.5187 35.0137 28.4412 34.3246 28.3895 33.4374" fill="#2E318D"/>
<path d="M105.93 52.5683C105.93 59.9934 105.956 67.4098 105.921 74.8349C105.895 79.9515 104.922 84.7407 100.365 87.9192C96.3598 90.7187 91.717 91.3475 86.9967 91.3217C83.1636 91.2958 79.4769 90.4172 76.1089 88.4791C72.1638 86.2137 70.1998 82.7079 69.7778 78.2718C69.6313 76.7386 69.5538 75.1967 69.5538 73.6634C69.5366 58.7013 69.5452 43.7392 69.5452 28.7771C69.5452 28.6134 69.5452 28.4498 69.5452 28.2775C69.571 25.5211 69.571 25.5211 72.2671 25.5297C73.4214 25.5297 74.5756 25.5383 75.7299 25.6158C77.6249 25.745 78.0987 26.2102 78.1848 28.1483C78.2709 30.2328 78.2968 32.326 78.2968 34.4105C78.3054 47.0038 78.2709 59.6058 78.3398 72.1991C78.3398 73.7496 78.5638 75.412 79.1409 76.8333C81.1565 81.769 86.566 83.6813 91.5792 81.7948C95.6449 80.2616 97.2126 77.5483 97.1695 73.3447C97.0748 63.9988 97.1609 54.6442 97.1868 45.2897C97.204 39.2945 97.2815 33.2993 97.2471 27.3041C97.2471 25.9776 97.6864 25.5469 98.9612 25.6072C100.606 25.6847 102.269 25.7192 103.906 25.5986C105.387 25.4952 105.783 26.0551 105.775 27.4764C105.723 35.8404 105.749 44.1957 105.749 52.5597H105.93" fill="#2E318D"/>
<path d="M240.856 0.153809C241.51 2.74655 242.139 5.20148 242.742 7.6564C245.335 18.1824 247.928 28.7085 250.512 39.2345C251.787 44.42 253.019 49.6141 254.285 54.7996C256.111 62.2935 257.946 69.7875 259.78 77.2815C261.064 82.5273 262.33 87.7817 263.7 93.0103C263.932 93.8975 264.621 94.6986 265.198 95.4566C265.956 96.473 266.223 97.5497 265.931 98.7643C265.75 99.4964 265.328 100.237 264.535 100.177C263.958 100.134 263.286 99.6859 262.89 99.2208C262.089 98.2819 262.244 97.1276 262.382 95.9648C262.502 94.9914 262.588 93.9147 262.304 93.0103C258.807 81.6918 255.249 70.3905 251.692 59.0892C249.47 52.0087 247.221 44.9368 244.982 37.8649C241.511 26.9168 238.022 15.9687 234.551 5.02059C233.836 2.76378 233.844 2.76378 236.024 1.95409C237.6 1.36835 239.176 0.782614 240.847 0.153809" fill="#2E318D"/>
<path d="M273.822 112.34C273.598 113.735 272.977 114.76 272.099 114.881C271.212 115.01 270.169 114.105 269.963 112.848C269.859 112.236 269.868 111.495 270.135 110.97C270.798 109.644 270.893 108.308 270.643 106.887C269.403 99.9358 268.171 92.9845 266.948 86.0332C265.113 75.6191 263.278 65.1965 261.444 54.7824C260.091 47.1248 258.73 39.4672 257.369 31.8095C256.327 25.978 255.293 20.1465 254.217 14.315C254.053 13.4277 254.294 13.1349 255.173 12.9971C256.878 12.7386 258.575 12.3941 260.246 11.9806C261.159 11.7567 261.383 12.1012 261.469 12.9023C261.84 16.4339 262.253 19.957 262.632 23.4886C263.519 31.7062 264.389 39.9323 265.294 48.1498C266.483 58.9257 267.706 69.7015 268.903 80.4773C269.609 86.8515 270.273 93.2343 270.962 99.6085C271.246 102.262 271.504 104.923 271.875 107.568C271.987 108.369 272.443 109.127 272.771 109.893C273.115 110.712 273.486 111.521 273.839 112.331" fill="#2E318D"/>
<path d="M208.675 57.1599C208.675 51.2164 208.675 45.2816 208.675 39.3381C208.675 31.3359 212.861 26.3916 220.786 25.2287C223.387 24.8497 226.04 24.7722 228.676 24.6171C231.252 24.4621 232.268 25.1856 233.043 27.6664C234.973 33.8511 236.885 40.0444 238.806 46.2377C240.58 51.9572 242.424 57.6595 244.104 63.4135C246.067 70.1151 245.508 76.808 243.423 83.3716C242.493 86.2917 240.098 88.0317 237.411 89.1515C231.045 91.8131 224.55 92.2438 217.935 89.9009C211.94 87.7733 208.796 83.5181 208.615 77.2817C208.417 70.5802 208.572 63.8615 208.572 57.1513C208.606 57.1513 208.641 57.1513 208.675 57.1513M236.084 57.8663C236.084 52.6463 236.119 47.4178 236.075 42.1978C236.032 36.7539 233.612 34.1267 228.211 33.5238C227.608 33.4549 227.005 33.4204 226.402 33.4204C220.321 33.4376 217.22 36.2199 217.134 42.284C216.987 52.7325 217.03 63.181 217.134 73.6295C217.168 77.2214 218.305 80.4774 222.138 81.7178C223.766 82.2432 225.593 82.3725 227.324 82.338C233.164 82.2519 236.024 79.3318 236.075 73.5261C236.119 68.3062 236.084 63.0776 236.084 57.8577" fill="#2E318D"/>
<path d="M206.418 24.3149C205.781 27.123 205.384 29.578 204.592 31.8951C204.342 32.6272 203.102 33.256 202.206 33.4714C200.673 33.8332 199.019 33.6867 197.468 34.014C193.411 34.8582 191.645 36.8652 191.215 40.9912C191.051 42.5761 190.999 44.1783 190.999 45.7632C190.982 58.2532 190.991 70.7432 190.999 83.2417C190.999 85.0593 191.017 86.8681 191.085 88.6856C191.12 89.6418 190.836 90.0983 189.793 90.0725C187.761 90.0122 185.719 90.0208 183.686 90.0725C182.678 90.0983 182.334 89.6848 182.342 88.7029C182.377 84.7405 182.377 80.7782 182.36 76.8245C182.317 65.4371 182.17 54.0411 182.274 42.6537C182.299 39.6733 182.687 36.5723 183.609 33.7642C185.237 28.8199 189.259 26.2186 194.195 25.3917C198.071 24.737 202.051 24.6853 206.418 24.3236" fill="#2E318D"/>
<path d="M43.6274 62.6632C43.6274 54.6955 43.369 46.7105 43.6964 38.76C44.0323 30.6114 48.8818 25.8652 56.9616 25.0383C59.5801 24.7712 62.2246 24.6592 64.8604 24.5473C66.8157 24.4697 67.3412 25.1675 66.9277 27.0711C66.6693 28.2512 66.4281 29.4313 66.1352 30.6114C65.6184 32.6873 65.0068 33.2041 62.8448 33.4281C61.6991 33.5487 60.5363 33.5917 59.3993 33.7726C55.0062 34.4789 52.5341 37.0717 52.2757 41.5164C52.0948 44.5312 52.1895 47.5546 52.1981 50.5781C52.2154 62.7838 52.2498 74.9895 52.2671 87.1866C52.2671 89.8052 51.8191 90.2186 49.1747 90.2273C43.9892 90.2445 43.5413 89.788 43.5413 84.6025V62.6632H43.6274Z" fill="#2E318D"/>
<path d="M1.55825 101.254C1.55825 101.047 1.72191 100.858 1.95448 100.858H6.59731C9.10391 100.858 10.9128 102.52 10.9128 104.691C10.9128 106.285 9.73272 107.43 8.75936 107.99C9.86193 108.447 11.3521 109.463 11.3521 111.367C11.3521 113.692 9.43985 115.372 6.82988 115.372H1.94587C1.72191 115.372 1.54964 115.183 1.54964 114.976V101.246L1.55825 101.254ZM6.80404 113.468C8.07026 113.468 9.04362 112.495 9.04362 111.212C9.04362 109.928 7.83769 109.032 6.49394 109.032H3.6514V113.468H6.80404ZM6.4681 107.163C7.79462 107.163 8.60432 106.19 8.60432 104.941C8.60432 103.692 7.79462 102.805 6.4681 102.805H3.66862V107.163H6.4681Z" fill="#2E318D"/>
<path d="M17.5453 101.254C17.5453 101.047 17.709 100.858 17.9415 100.858H23.5835C26.0729 100.858 28.1058 102.83 28.1058 105.294C28.1058 107.198 26.8396 108.774 25.0393 109.506L27.8818 114.778C28.0283 115.045 27.8818 115.381 27.5287 115.381H25.9093C25.7456 115.381 25.6164 115.277 25.5733 115.191L22.8169 109.696H19.6815V114.984C19.6815 115.191 19.492 115.381 19.2853 115.381H17.9329C17.709 115.381 17.5367 115.191 17.5367 114.984V101.254H17.5453ZM23.4113 107.913C24.755 107.913 25.9437 106.776 25.9437 105.337C25.9437 103.993 24.7636 102.865 23.4113 102.865H19.716V107.904H23.4113V107.913Z" fill="#2E318D"/>
<path d="M32.4566 114.838L38.8222 100.875C38.8825 100.754 39.072 100.651 39.1753 100.651H39.3821C39.4854 100.651 39.6749 100.754 39.7352 100.875L46.0578 114.838C46.1783 115.105 46.0147 115.38 45.7046 115.38H44.3953C44.1455 115.38 43.9991 115.26 43.9215 115.07L42.6381 112.228H35.859C35.4456 113.184 35.0063 114.114 34.5928 115.07C34.5325 115.217 34.3689 115.38 34.1191 115.38H32.8098C32.4997 115.38 32.336 115.113 32.4566 114.838ZM41.8542 110.445L39.3046 104.76H39.2012L36.6687 110.445H41.8542Z" fill="#2E318D"/>
<path d="M51.225 101.021C51.225 100.815 51.4145 100.651 51.6212 100.651H52.138L61.1394 111.065H61.1567V101.254C61.1567 101.047 61.3203 100.858 61.5529 100.858H62.8794C63.0861 100.858 63.2756 101.047 63.2756 101.254V115.217C63.2756 115.423 63.0861 115.587 62.8794 115.587H62.3368L53.3354 104.889H53.3181V114.993C53.3181 115.2 53.1545 115.389 52.9219 115.389H51.6126C51.4059 115.389 51.2164 115.2 51.2164 114.993V101.03L51.225 101.021Z" fill="#2E318D"/>
<path d="M70.3912 101.254C70.3912 101.047 70.5548 100.858 70.7616 100.858H75.5336C79.539 100.858 82.8122 104.114 82.8122 108.093C82.8122 112.073 79.539 115.372 75.5336 115.372H70.7616C70.5548 115.372 70.3912 115.183 70.3912 114.976V101.246V101.254ZM75.2407 113.408C78.29 113.408 80.5124 111.169 80.5124 108.102C80.5124 105.036 78.29 102.83 75.2407 102.83H72.5015V113.408H75.2407Z" fill="#2E318D"/>
<path d="M94.5694 114.838L100.935 100.875C100.995 100.754 101.185 100.651 101.288 100.651H101.495C101.598 100.651 101.788 100.754 101.848 100.875L108.171 114.838C108.291 115.105 108.127 115.38 107.817 115.38H106.508C106.258 115.38 106.112 115.26 106.034 115.07L104.751 112.228H97.9718C97.5584 113.184 97.1191 114.114 96.7056 115.07C96.6453 115.217 96.4817 115.38 96.2319 115.38H94.9226C94.6125 115.38 94.4488 115.113 94.5694 114.838ZM103.967 110.445L101.417 104.76H101.314L98.7815 110.445H103.967Z" fill="#2E318D"/>
<path d="M119.688 100.651C121.781 100.651 123.297 101.357 124.71 102.58C124.899 102.744 124.899 102.994 124.727 103.157L123.814 104.088C123.668 104.277 123.478 104.277 123.297 104.088C122.324 103.235 120.997 102.701 119.705 102.701C116.742 102.701 114.503 105.19 114.503 108.093C114.503 110.996 116.759 113.468 119.731 113.468C121.247 113.468 122.307 112.865 123.297 112.099C123.487 111.952 123.668 111.978 123.797 112.081L124.753 113.012C124.917 113.158 124.873 113.425 124.736 113.572C123.323 114.941 121.54 115.587 119.697 115.587C115.545 115.587 112.211 112.288 112.211 108.145C112.211 104.002 115.553 100.659 119.697 100.659L119.688 100.651Z" fill="#2E318D"/>
<path d="M132.771 102.804H129.395C129.171 102.804 128.999 102.615 128.999 102.408V101.245C128.999 101.039 129.162 100.849 129.395 100.849H138.31C138.534 100.849 138.706 101.039 138.706 101.245V102.408C138.706 102.615 138.543 102.804 138.31 102.804H134.933V114.976C134.933 115.182 134.744 115.372 134.537 115.372H133.168C132.961 115.372 132.771 115.182 132.771 114.976V102.804Z" fill="#2E318D"/>
<path d="M144.039 101.254C144.039 101.047 144.229 100.858 144.436 100.858H145.805C146.012 100.858 146.201 101.047 146.201 101.254V114.984C146.201 115.191 146.012 115.381 145.805 115.381H144.436C144.229 115.381 144.039 115.191 144.039 114.984V101.254Z" fill="#2E318D"/>
<path d="M151.377 101.401C151.256 101.134 151.42 100.858 151.73 100.858H153.203C153.367 100.858 153.513 100.978 153.556 101.082L158.121 111.349H158.242L162.807 101.082C162.85 100.978 162.971 100.858 163.16 100.858H164.633C164.943 100.858 165.107 101.125 164.987 101.401L158.621 115.355C158.561 115.475 158.431 115.587 158.268 115.587H158.061C157.915 115.587 157.768 115.484 157.708 115.355L151.385 101.401H151.377Z" fill="#2E318D"/>
<path d="M167.279 114.838L173.644 100.875C173.705 100.754 173.894 100.651 173.998 100.651H174.204C174.308 100.651 174.497 100.754 174.558 100.875L180.88 114.838C181.001 115.105 180.837 115.38 180.527 115.38H179.218C178.968 115.38 178.821 115.26 178.744 115.07L177.46 112.228H170.681C170.268 113.184 169.829 114.114 169.415 115.07C169.355 115.217 169.191 115.38 168.941 115.38H167.632C167.322 115.38 167.158 115.113 167.279 114.838ZM176.676 110.445L174.127 104.76H174.023L171.491 110.445H176.676Z" fill="#2E318D"/>
<path d="M187.28 102.804H183.903C183.679 102.804 183.507 102.615 183.507 102.408V101.245C183.507 101.039 183.671 100.849 183.903 100.849H192.818C193.042 100.849 193.215 101.039 193.215 101.245V102.408C193.215 102.615 193.051 102.804 192.818 102.804H189.442V114.976C189.442 115.182 189.252 115.372 189.046 115.372H187.676C187.469 115.372 187.28 115.182 187.28 114.976V102.804Z" fill="#2E318D"/>
<path d="M198.538 101.254C198.538 101.047 198.728 100.858 198.935 100.858H200.304C200.511 100.858 200.7 101.047 200.7 101.254V114.984C200.7 115.191 200.511 115.381 200.304 115.381H198.935C198.728 115.381 198.538 115.191 198.538 114.984V101.254Z" fill="#2E318D"/>
<path d="M214.197 100.651C218.349 100.651 221.665 103.993 221.665 108.136C221.665 112.279 218.349 115.579 214.197 115.579C210.045 115.579 206.755 112.279 206.755 108.136C206.755 103.993 210.054 100.651 214.197 100.651ZM214.197 113.511C217.16 113.511 219.589 111.108 219.589 108.136C219.589 105.164 217.16 102.727 214.197 102.727C211.234 102.727 208.822 105.199 208.822 108.136C208.822 111.074 211.251 113.511 214.197 113.511Z" fill="#2E318D"/>
<path d="M227.712 101.021C227.712 100.815 227.902 100.651 228.109 100.651H228.625L237.627 111.065H237.644V101.254C237.644 101.047 237.808 100.858 238.04 100.858H239.367C239.573 100.858 239.763 101.047 239.763 101.254V115.217C239.763 115.423 239.573 115.587 239.367 115.587H238.824L229.823 104.889H229.805V114.993C229.805 115.2 229.642 115.389 229.409 115.389H228.1C227.893 115.389 227.704 115.2 227.704 114.993V101.03L227.712 101.021Z" fill="#2E318D"/>
<path d="M245.948 113.278C246.138 113.011 246.302 112.701 246.491 112.426C246.681 112.159 246.965 112.073 247.197 112.262C247.318 112.365 248.92 113.692 250.514 113.692C251.944 113.692 252.857 112.822 252.857 111.762C252.857 110.513 251.78 109.73 249.721 108.877C247.602 107.981 245.948 106.887 245.948 104.475C245.948 102.856 247.189 100.642 250.488 100.642C252.564 100.642 254.114 101.719 254.321 101.865C254.485 101.969 254.648 102.261 254.442 102.572C254.278 102.821 254.088 103.114 253.925 103.364C253.761 103.631 253.485 103.76 253.201 103.571C253.055 103.485 251.608 102.537 250.402 102.537C248.662 102.537 248.059 103.64 248.059 104.406C248.059 105.586 248.972 106.31 250.695 107.016C253.098 107.99 255.157 109.135 255.157 111.659C255.157 113.813 253.227 115.578 250.531 115.578C247.999 115.578 246.405 114.252 246.069 113.942C245.88 113.778 245.733 113.632 245.948 113.278Z" fill="#2E318D"/>
</svg>
