<svg width="33" height="33" viewBox="0 0 33 33" fill="none" xmlns="http://www.w3.org/2000/svg">
<path d="M32.3946 14.1213V26.1646C32.3925 27.9385 31.6869 29.639 30.4326 30.8933C29.1783 32.1476 27.4777 32.8532 25.7038 32.8554H6.96971C5.19587 32.8532 3.49528 32.1476 2.24098 30.8933C0.986685 29.639 0.281086 27.9385 0.278961 26.1646L0.278961 11.445C0.281086 9.67111 0.986685 7.97052 2.24098 6.71622C3.49528 5.46192 5.19587 4.75632 6.96971 4.7542H17.6749C18.0298 4.7542 18.3702 4.89518 18.6211 5.14613C18.8721 5.39709 19.0131 5.73745 19.0131 6.09235C19.0131 6.44725 18.8721 6.78761 18.6211 7.03856C18.3702 7.28952 18.0298 7.4305 17.6749 7.4305H6.96971C6.24204 7.43251 5.52869 7.63293 4.90644 8.0102C4.2842 8.38746 3.77662 8.92727 3.43833 9.57154L13.4972 19.6318C14.2515 20.3826 15.2725 20.8041 16.3368 20.8041C17.401 20.8041 18.422 20.3826 19.1763 19.6318L24.2894 14.5227C24.5418 14.2789 24.8798 14.1441 25.2307 14.1471C25.5815 14.1502 25.9171 14.2909 26.1652 14.539C26.4133 14.7871 26.5541 15.1227 26.5571 15.4736C26.5602 15.8244 26.4253 16.1625 26.1815 16.4148L21.0685 21.5293C19.8123 22.7818 18.1107 23.4851 16.3368 23.4851C14.5628 23.4851 12.8613 22.7818 11.6051 21.5293L2.95526 12.8781V26.1646C2.95526 27.2293 3.37821 28.2504 4.13107 29.0033C4.88392 29.7561 5.90502 30.1791 6.96971 30.1791H25.7038C26.7685 30.1791 27.7896 29.7561 28.5425 29.0033C29.2953 28.2504 29.7183 27.2293 29.7183 26.1646V14.1213C29.7183 13.7664 29.8593 13.426 30.1102 13.175C30.3612 12.9241 30.7015 12.7831 31.0564 12.7831C31.4113 12.7831 31.7517 12.9241 32.0026 13.175C32.2536 13.426 32.3946 13.7664 32.3946 14.1213ZM23.0275 7.4305H25.7038V10.1068C25.7038 10.4617 25.8448 10.8021 26.0958 11.053C26.3467 11.304 26.6871 11.445 27.042 11.445C27.3969 11.445 27.7372 11.304 27.9882 11.053C28.2391 10.8021 28.3801 10.4617 28.3801 10.1068V7.4305H31.0564C31.4113 7.4305 31.7517 7.28952 32.0026 7.03856C32.2536 6.78761 32.3946 6.44725 32.3946 6.09235C32.3946 5.73745 32.2536 5.39709 32.0026 5.14613C31.7517 4.89518 31.4113 4.7542 31.0564 4.7542H28.3801V2.0779C28.3801 1.723 28.2391 1.38263 27.9882 1.13168C27.7372 0.880729 27.3969 0.739746 27.042 0.739746C26.6871 0.739746 26.3467 0.880729 26.0958 1.13168C25.8448 1.38263 25.7038 1.723 25.7038 2.0779V4.7542H23.0275C22.6726 4.7542 22.3323 4.89518 22.0813 5.14613C21.8304 5.39709 21.6894 5.73745 21.6894 6.09235C21.6894 6.44725 21.8304 6.78761 22.0813 7.03856C22.3323 7.28952 22.6726 7.4305 23.0275 7.4305Z" fill="#FFF02F"/>
</svg>
