<svg width="33" height="34" viewBox="0 0 33 34" fill="none" xmlns="http://www.w3.org/2000/svg">
<path fill-rule="evenodd" clip-rule="evenodd" d="M27.7756 21.9784C27.1529 21.666 24.0895 20.1584 23.5171 19.9508C22.9468 19.7433 22.5317 19.6384 22.1144 20.2612C21.6971 20.8839 20.5062 22.2887 20.1414 22.706C19.7786 23.1211 19.4138 23.1735 18.7911 22.8611C18.1683 22.5487 16.1596 21.8924 13.7798 19.7684C11.9284 18.1162 10.6767 16.0761 10.3139 15.4512C9.9512 14.8264 10.2762 14.4909 10.5865 14.1806C10.8675 13.9017 11.2092 13.453 11.5217 13.0882C11.8362 12.7276 11.9389 12.4676 12.1486 12.0503C12.3562 11.6352 12.2534 11.2703 12.0962 10.9579C11.9389 10.6476 10.6934 7.58006 10.1755 6.33249C9.67023 5.11638 9.15653 5.28202 8.77283 5.26315C8.41009 5.24428 7.99493 5.24219 7.57768 5.24219C7.16253 5.24219 6.48738 5.39735 5.91706 6.02217C5.34675 6.647 3.73645 8.15456 3.73645 11.22C3.73645 14.2875 5.96948 17.2502 6.2798 17.6654C6.59012 18.0805 10.6725 24.375 16.9229 27.0735C18.4095 27.7151 19.571 28.0988 20.4747 28.386C21.9676 28.8599 23.3263 28.7928 24.3998 28.6335C25.5971 28.4552 28.0859 27.1259 28.6059 25.6708C29.1259 24.2156 29.1259 22.966 28.9687 22.7081C28.8135 22.446 28.3983 22.2908 27.7756 21.9784Z" fill="#FFF02F"/>
</svg>
